<?xml version="1.0" encoding="UTF-8" standalone="no"?>
<!-- Created with Inkscape (http://www.inkscape.org/) -->

<svg
   xmlns:dc="http://purl.org/dc/elements/1.1/"
   xmlns:cc="http://creativecommons.org/ns#"
   xmlns:rdf="http://www.w3.org/1999/02/22-rdf-syntax-ns#"
   xmlns:svg="http://www.w3.org/2000/svg"
   xmlns="http://www.w3.org/2000/svg"
   xmlns:sodipodi="http://sodipodi.sourceforge.net/DTD/sodipodi-0.dtd"
   xmlns:inkscape="http://www.inkscape.org/namespaces/inkscape"
   width="42.333752mm"
   height="42.347363mm"
   viewBox="0 0 150.00148 150.04971"
   id="svg4167"
   version="1.1"
   inkscape:version="0.91 r13725"
   sodipodi:docname="loghut.svg">
  <defs
     id="defs4169">
    <clipPath
       clipPathUnits="userSpaceOnUse"
       id="clipPath4751-2-1-2">
      <rect
         style="fill:#ffffff;fill-opacity:1;stroke:none;stroke-width:20;stroke-miterlimit:4;stroke-dasharray:none;stroke-opacity:1"
         id="rect4753-2-7-4"
         width="408.69839"
         height="229.83493"
         x="114.97087"
         y="-40.98695"
         transform="matrix(0.9986084,-0.05273761,0.05273761,0.9986084,0,0)" />
    </clipPath>
    <clipPath
       clipPathUnits="userSpaceOnUse"
       id="clipPath4751-4-8-8">
      <rect
         style="fill:#ffffff;fill-opacity:1;stroke:none;stroke-width:20;stroke-miterlimit:4;stroke-dasharray:none;stroke-opacity:1"
         id="rect4753-1-5-0"
         width="408.69839"
         height="229.83493"
         x="114.97087"
         y="-40.98695"
         transform="matrix(0.9986084,-0.05273761,0.05273761,0.9986084,0,0)" />
    </clipPath>
    <clipPath
       clipPathUnits="userSpaceOnUse"
       id="clipPath4751-2-1-2-0">
      <rect
         style="fill:#ffffff;fill-opacity:1;stroke:none;stroke-width:20;stroke-miterlimit:4;stroke-dasharray:none;stroke-opacity:1"
         id="rect4753-2-7-4-8"
         width="408.69839"
         height="229.83493"
         x="114.97087"
         y="-40.98695"
         transform="matrix(0.9986084,-0.05273761,0.05273761,0.9986084,0,0)" />
    </clipPath>
  </defs>
  <sodipodi:namedview
     id="base"
     pagecolor="#ffffff"
     bordercolor="#666666"
     borderopacity="1.0"
     inkscape:pageopacity="0.0"
     inkscape:pageshadow="2"
     inkscape:zoom="2.2830768"
     inkscape:cx="185.18803"
     inkscape:cy="186.54688"
     inkscape:document-units="px"
     inkscape:current-layer="layer1"
     showgrid="false"
     inkscape:window-width="1920"
     inkscape:window-height="1022"
     inkscape:window-x="0"
     inkscape:window-y="25"
     inkscape:window-maximized="1"
     fit-margin-top="0"
     fit-margin-left="0"
     fit-margin-right="0"
     fit-margin-bottom="0" />
  <metadata
     id="metadata4172">
    <rdf:RDF>
      <cc:Work
         rdf:about="">
        <dc:format>image/svg+xml</dc:format>
        <dc:type
           rdf:resource="http://purl.org/dc/dcmitype/StillImage" />
        <dc:title></dc:title>
      </cc:Work>
    </rdf:RDF>
  </metadata>
  <g
     inkscape:label="Layer 1"
     inkscape:groupmode="layer"
     id="layer1"
     transform="translate(-220.77737,-587.4172)">
    <g
       id="g4163"
       transform="matrix(0.25000246,0,0,0.25008285,203.21442,515.73487)">
      <rect
         ry="75.464684"
         rx="99.509804"
         y="296.63434"
         x="80.251106"
         height="580"
         width="580"
         id="rect4774"
         style="fill:#deaa87;fill-opacity:1;stroke:#552200;stroke-width:20.00000381;stroke-miterlimit:4;stroke-dasharray:none;stroke-opacity:1" />
      <rect
         transform="matrix(0.83782713,0.54593562,-0.51965248,0.85437773,0,0)"
         y="-8.2409706"
         x="610.92505"
         height="85.829895"
         width="56.776939"
         id="rect4926-8"
         style="fill:#552200;fill-opacity:1" />
      <path
         transform="matrix(1.5274676,0.08349475,-0.08066725,1.5810078,-130.45192,207.95195)"
         inkscape:transform-center-y="-13.87117"
         inkscape:transform-center-x="-0.018418467"
         d="m 231.24808,183.37621 c 3.33003,-12.42785 39.99582,-32.38798 49.99478,-40.48498 9.99895,-8.09699 37.14615,-39.8116 49.99477,-40.48497 12.84862,-0.67336 43.16219,28.02985 53.95274,35.03732 10.79054,7.00746 49.34187,23.02563 53.95272,35.03731 4.61085,12.01168 -13.32012,49.71138 -16.65015,62.13923 -3.33003,12.42784 -6.6512,54.04222 -16.65015,62.13921 -9.99896,8.09699 -51.39448,2.69348 -64.2431,3.36684 -12.84862,0.67337 -53.45254,10.3743 -64.24309,3.36684 -10.79054,-7.00746 -18.44341,-48.04672 -23.05426,-60.0584 -4.61086,-12.01168 -26.38429,-47.63056 -23.05426,-60.0584 z"
         inkscape:randomized="0"
         inkscape:rounded="0.2"
         inkscape:flatsided="false"
         sodipodi:arg2="-2.2514747"
         sodipodi:arg1="-2.8797933"
         sodipodi:r2="88.54438"
         sodipodi:r1="109.44687"
         sodipodi:cy="211.70314"
         sodipodi:cx="336.96564"
         sodipodi:sides="5"
         id="path3878-4"
         style="fill:none;fill-opacity:1;stroke:#aa4400;stroke-width:12.85206032;stroke-miterlimit:4;stroke-dasharray:none;stroke-opacity:1"
         sodipodi:type="star" />
      <path
         transform="matrix(1.1239938,0.06138979,-0.05935934,1.1624411,3.2882713,305.46803)"
         inkscape:transform-center-y="-10.198845"
         inkscape:transform-center-x="-0.013562329"
         d="m 231.24808,183.37621 c 3.33003,-12.42785 39.99582,-32.38798 49.99478,-40.48498 9.99895,-8.09699 37.14615,-39.8116 49.99477,-40.48497 12.84862,-0.67336 43.16219,28.02985 53.95274,35.03732 10.79054,7.00746 49.34187,23.02563 53.95272,35.03731 4.61085,12.01168 -13.32012,49.71138 -16.65015,62.13923 -3.33003,12.42784 -6.6512,54.04222 -16.65015,62.13921 -9.99896,8.09699 -51.39448,2.69348 -64.2431,3.36684 -12.84862,0.67337 -53.45254,10.3743 -64.24309,3.36684 -10.79054,-7.00746 -18.44341,-48.04672 -23.05426,-60.0584 -4.61086,-12.01168 -26.38429,-47.63056 -23.05426,-60.0584 z"
         inkscape:randomized="0"
         inkscape:rounded="0.2"
         inkscape:flatsided="false"
         sodipodi:arg2="-2.2514747"
         sodipodi:arg1="-2.8797933"
         sodipodi:r2="88.54438"
         sodipodi:r1="109.44687"
         sodipodi:cy="211.70314"
         sodipodi:cx="336.96564"
         sodipodi:sides="5"
         id="path3878-0-5"
         style="fill:none;fill-opacity:1;stroke:#aa4400;stroke-width:17.47262764;stroke-miterlimit:4;stroke-dasharray:none;stroke-opacity:1"
         sodipodi:type="star" />
      <path
         transform="matrix(0.75817468,0.04134672,-0.04004004,0.7829173,124.45634,392.31022)"
         inkscape:transform-center-y="-6.8690342"
         inkscape:transform-center-x="-0.0091465306"
         d="m 231.24808,183.37621 c 3.33003,-12.42785 39.99582,-32.38798 49.99478,-40.48498 9.99895,-8.09699 37.14615,-39.8116 49.99477,-40.48497 12.84862,-0.67336 43.16219,28.02985 53.95274,35.03732 10.79054,7.00746 49.34187,23.02563 53.95272,35.03731 4.61085,12.01168 -13.32012,49.71138 -16.65015,62.13923 -3.33003,12.42784 -6.6512,54.04222 -16.65015,62.13921 -9.99896,8.09699 -51.39448,2.69348 -64.2431,3.36684 -12.84862,0.67337 -53.45254,10.3743 -64.24309,3.36684 -10.79054,-7.00746 -18.44341,-48.04672 -23.05426,-60.0584 -4.61086,-12.01168 -26.38429,-47.63056 -23.05426,-60.0584 z"
         inkscape:randomized="0"
         inkscape:rounded="0.2"
         inkscape:flatsided="false"
         sodipodi:arg2="-2.2514747"
         sodipodi:arg1="-2.8797933"
         sodipodi:r2="88.54438"
         sodipodi:r1="109.44687"
         sodipodi:cy="211.70314"
         sodipodi:cx="336.96564"
         sodipodi:sides="5"
         id="path3878-0-2-8"
         style="fill:none;fill-opacity:1;stroke:#aa4400;stroke-width:25.92287254;stroke-miterlimit:4;stroke-dasharray:none;stroke-opacity:1"
         sodipodi:type="star" />
      <path
         transform="matrix(0.41049671,0.02229489,-0.02167879,0.42216289,237.53905,475.60111)"
         inkscape:transform-center-y="-3.7039049"
         inkscape:transform-center-x="-0.0049426861"
         d="m 231.24808,183.37621 c 3.33003,-12.42785 39.99582,-32.38798 49.99478,-40.48498 9.99895,-8.09699 37.14615,-39.8116 49.99477,-40.48497 12.84862,-0.67336 43.16219,28.02985 53.95274,35.03732 10.79054,7.00746 49.34187,23.02563 53.95272,35.03731 4.61085,12.01168 -13.32012,49.71138 -16.65015,62.13923 -3.33003,12.42784 -6.6512,54.04222 -16.65015,62.13921 -9.99896,8.09699 -51.39448,2.69348 -64.2431,3.36684 -12.84862,0.67337 -53.45254,10.3743 -64.24309,3.36684 -10.79054,-7.00746 -18.44341,-48.04672 -23.05426,-60.0584 -4.61086,-12.01168 -26.38429,-47.63056 -23.05426,-60.0584 z"
         inkscape:randomized="0"
         inkscape:rounded="0.2"
         inkscape:flatsided="false"
         sodipodi:arg2="-2.2514747"
         sodipodi:arg1="-2.8797933"
         sodipodi:r2="88.54438"
         sodipodi:r1="109.44687"
         sodipodi:cy="211.70314"
         sodipodi:cx="336.96564"
         sodipodi:sides="5"
         id="path3878-0-2-2-75"
         style="fill:none;fill-opacity:1;stroke:#aa4400;stroke-width:47.97676086;stroke-miterlimit:4;stroke-dasharray:none;stroke-opacity:1"
         sodipodi:type="star" />
      <path
         transform="matrix(0.08384314,0.00434223,-0.00442784,0.08222205,342.75525,554.64344)"
         inkscape:transform-center-y="-0.72138057"
         inkscape:transform-center-x="-0.0010294522"
         d="m 231.24808,183.37621 c 3.33003,-12.42785 39.99582,-32.38798 49.99478,-40.48498 9.99895,-8.09699 37.14615,-39.8116 49.99477,-40.48497 12.84862,-0.67336 43.16219,28.02985 53.95274,35.03732 10.79054,7.00746 49.34187,23.02563 53.95272,35.03731 4.61085,12.01168 -13.32012,49.71138 -16.65015,62.13923 -3.33003,12.42784 -6.6512,54.04222 -16.65015,62.13921 -9.99896,8.09699 -51.39448,2.69348 -64.2431,3.36684 -12.84862,0.67337 -53.45254,10.3743 -64.24309,3.36684 -10.79054,-7.00746 -18.44341,-48.04672 -23.05426,-60.0584 -4.61086,-12.01168 -26.38429,-47.63056 -23.05426,-60.0584 z"
         inkscape:randomized="0"
         inkscape:rounded="0.2"
         inkscape:flatsided="false"
         sodipodi:arg2="-2.2514747"
         sodipodi:arg1="-2.8797933"
         sodipodi:r2="88.54438"
         sodipodi:r1="109.44687"
         sodipodi:cy="211.70314"
         sodipodi:cx="336.96564"
         sodipodi:sides="5"
         id="path3878-0-2-2-7-7"
         style="fill:#aa4400;fill-opacity:1;stroke:#aa4400;stroke-width:240.54580688;stroke-miterlimit:4;stroke-dasharray:none;stroke-opacity:1"
         sodipodi:type="star" />
      <path
         clip-path="url(#clipPath4751-2-1-2-0)"
         transform="matrix(2.286566,0.11322802,-0.12075607,2.1440192,-374.68732,100.57546)"
         inkscape:transform-center-y="-18.810833"
         inkscape:transform-center-x="-0.027589738"
         d="m 231.24808,183.37621 c 3.33003,-12.42785 39.99582,-32.38798 49.99478,-40.48498 9.99895,-8.09699 37.14615,-39.8116 49.99477,-40.48497 12.84862,-0.67336 43.16219,28.02985 53.95274,35.03732 10.79054,7.00746 49.34187,23.02563 53.95272,35.03731 4.61085,12.01168 -13.32012,49.71138 -16.65015,62.13923 -3.33003,12.42784 -6.6512,54.04222 -16.65015,62.13921 -9.99896,8.09699 -51.39448,2.69348 -64.2431,3.36684 -12.84862,0.67337 -53.45254,10.3743 -64.24309,3.36684 -10.79054,-7.00746 -18.44341,-48.04672 -23.05426,-60.0584 -4.61086,-12.01168 -26.38429,-47.63056 -23.05426,-60.0584 z"
         inkscape:randomized="0"
         inkscape:rounded="0.2"
         inkscape:flatsided="false"
         sodipodi:arg2="-2.2514747"
         sodipodi:arg1="-2.8797933"
         sodipodi:r2="88.54438"
         sodipodi:r1="109.44687"
         sodipodi:cy="211.70314"
         sodipodi:cx="336.96564"
         sodipodi:sides="5"
         id="path3878-2-1-0-5"
         style="fill:none;fill-opacity:1;stroke:#552200;stroke-width:9.02027035;stroke-miterlimit:4;stroke-dasharray:none;stroke-opacity:1"
         sodipodi:type="star" />
      <g
         id="flowRoot4157"
         style="font-style:normal;font-weight:normal;font-size:40px;line-height:125%;font-family:sans-serif;letter-spacing:0px;word-spacing:0px;fill:#552200;fill-opacity:1;stroke:none;stroke-width:1px;stroke-linecap:butt;stroke-linejoin:miter;stroke-opacity:1"
         transform="matrix(2.9076543,0,0,2.9105943,-485.1842,-1545.8849)">
        <path
           id="path4152"
           style="font-style:normal;font-variant:normal;font-weight:bold;font-stretch:normal;font-family:sans-serif;-inkscape-font-specification:'sans-serif Bold';fill:#552200"
           d="m 215.09961,785.92856 7.51953,0 0,23.47656 13.20313,0 0,5.6836 -20.72266,0 0,-29.16016 z"
           inkscape:connector-curvature="0" />
        <path
           id="path4154"
           style="font-style:normal;font-variant:normal;font-weight:bold;font-stretch:normal;font-family:sans-serif;-inkscape-font-specification:'sans-serif Bold';fill:#552200"
           d="m 250.66602,797.68637 q -2.32422,0 -3.55469,1.67969 -1.21094,1.66016 -1.21094,4.80469 0,3.14453 1.21094,4.82422 1.23047,1.66015 3.55469,1.66015 2.28515,0 3.49609,-1.66015 1.21094,-1.67969 1.21094,-4.82422 0,-3.14453 -1.21094,-4.80469 -1.21094,-1.67969 -3.49609,-1.67969 z m 0,-5 q 5.64453,0 8.80859,3.04688 3.18359,3.04687 3.18359,8.4375 0,5.39062 -3.18359,8.4375 -3.16406,3.04687 -8.80859,3.04687 -5.66407,0 -8.86719,-3.04687 -3.1836,-3.04688 -3.1836,-8.4375 0,-5.39063 3.1836,-8.4375 3.20312,-3.04688 8.86719,-3.04688 z"
           inkscape:connector-curvature="0" />
        <path
           id="path4156"
           style="font-style:normal;font-variant:normal;font-weight:bold;font-stretch:normal;font-family:sans-serif;-inkscape-font-specification:'sans-serif Bold';fill:#552200"
           d="m 282.63867,811.37778 q -1.44531,1.91406 -3.18359,2.8125 -1.73828,0.89844 -4.02344,0.89844 -4.00391,0 -6.62109,-3.14453 -2.61719,-3.16407 -2.61719,-8.04688 0,-4.90234 2.61719,-8.02734 2.61718,-3.14453 6.62109,-3.14453 2.28516,0 4.02344,0.89843 1.73828,0.89844 3.18359,2.83203 l 0,-3.24218 7.03125,0 0,19.66797 q 0,5.27343 -3.33984,8.04687 -3.32031,2.79297 -9.64844,2.79297 -2.05078,0 -3.96484,-0.3125 -1.91407,-0.3125 -3.84766,-0.95703 l 0,-5.44922 q 1.83594,1.05469 3.59375,1.5625 1.75781,0.52734 3.53516,0.52734 3.4375,0 5.03906,-1.5039 1.60156,-1.50391 1.60156,-4.70703 l 0,-1.50391 z M 278.0293,797.7645 q -2.16797,0 -3.37891,1.60156 -1.21094,1.60156 -1.21094,4.53125 0,3.00781 1.17188,4.57031 1.17187,1.54297 3.41797,1.54297 2.1875,0 3.39843,-1.60156 1.21094,-1.60156 1.21094,-4.51172 0,-2.92969 -1.21094,-4.53125 -1.21093,-1.60156 -3.39843,-1.60156 z"
           inkscape:connector-curvature="0" />
        <path
           id="path4158"
           style="font-style:normal;font-variant:normal;font-weight:bold;font-stretch:normal;font-family:sans-serif;-inkscape-font-specification:'sans-serif Bold';fill:#552200"
           d="m 296.74023,785.92856 7.51954,0 0,11.11328 11.09375,0 0,-11.11328 7.51953,0 0,29.16016 -7.51953,0 0,-12.36328 -11.09375,0 0,12.36328 -7.51954,0 0,-29.16016 z"
           inkscape:connector-curvature="0" />
        <path
           id="path4160"
           style="font-style:normal;font-variant:normal;font-weight:bold;font-stretch:normal;font-family:sans-serif;-inkscape-font-specification:'sans-serif Bold';fill:#552200"
           d="m 329.70898,806.57309 0,-13.35937 7.03125,0 0,2.1875 q 0,1.77734 -0.0195,4.47265 -0.0195,2.67578 -0.0195,3.57422 0,2.63672 0.13672,3.8086 0.13672,1.15234 0.46875,1.67968 0.42969,0.6836 1.11328,1.05469 0.70313,0.37109 1.60156,0.37109 2.1875,0 3.4375,-1.67968 1.25,-1.67969 1.25,-4.66797 l 0,-10.80078 6.99219,0 0,21.875 -6.99219,0 0,-3.16407 q -1.58203,1.91407 -3.35937,2.83204 -1.75781,0.89843 -3.88672,0.89843 -3.78906,0 -5.78125,-2.32422 -1.97266,-2.32421 -1.97266,-6.75781 z"
           inkscape:connector-curvature="0" />
        <path
           id="path4162"
           style="font-style:normal;font-variant:normal;font-weight:bold;font-stretch:normal;font-family:sans-serif;-inkscape-font-specification:'sans-serif Bold';fill:#552200"
           d="m 366.0957,787.00278 0,6.21094 7.20703,0 0,5 -7.20703,0 0,9.27734 q 0,1.52344 0.60547,2.07031 0.60547,0.52735 2.40235,0.52735 l 3.59375,0 0,5 -5.9961,0 q -4.14062,0 -5.8789,-1.71875 -1.71875,-1.73828 -1.71875,-5.87891 l 0,-9.27734 -3.47657,0 0,-5 3.47657,0 0,-6.21094 6.99218,0 z"
           inkscape:connector-curvature="0" />
      </g>
    </g>
  </g>
</svg>
